<svg xmlns="http://www.w3.org/2000/svg" xml:space="preserve" viewBox="0 0 56.693 56.693">
    <path
        d="m3.602 22.974 2.01 2.636s4.146-3.267 5.528-1.634c1.382 1.634 6.656 21.357 8.417 24.997 1.537 3.192 5.777 7.413 10.426 4.397 4.646-3.014 20.098-16.205 22.863-31.781C55.61 6.015 34.252 9.276 31.992 22.845c5.652-3.395 8.671 1.38 5.778 6.784-2.889 5.399-5.527 8.921-6.908 8.921-1.379 0-2.441-3.612-4.021-9.928-1.635-6.53-1.624-18.291-8.416-16.958-6.406 1.257-14.823 11.31-14.823 11.31z" />
</svg>