<svg viewBox="0 0 100 59">
    <path fill="#020202" d="M16.053 11.715a5.356 5.356 0 0 1 2.812 2.105 6.035 6.035 0 0 1 1.087 3.542c0 2.157-.695 3.814-2.086 4.97-1.39 1.157-3.345 1.736-5.866 1.74H1.002V.139H11.26c2.52 0 4.482.556 5.885 1.669 1.404 1.113 2.105 2.724 2.105 4.833 0 1.247-.305 2.318-.916 3.215a4.723 4.723 0 0 1-2.28 1.859zM6.972 9.61h3.586c1.872 0 2.807-.728 2.806-2.184 0-1.429-.936-2.143-2.806-2.143H6.972V9.61zm0 4.674v4.64h4.213c.858 0 1.526-.208 2.004-.624a2.102 2.102 0 0 0 .72-1.67c0-.726-.24-1.297-.72-1.714-.481-.418-1.149-.626-2.004-.625l-4.213-.007zM33.556 6.53v5.809a5.44 5.44 0 0 0-2.533-.546c-1.741 0-2.78.663-3.118 1.988v10.29h-6.122V6.532h6.12v1.56c.96-1.3 2.337-1.56 4.02-1.56h1.633zm8.314 0v17.542h-6.12V6.53zm14.11 17.542-4.287-6.511-1.169 1.364v5.145h-6.117V.03h6.119v12.107l4.911-5.613h7.368l-6.666 7.289 6.86 10.252zm7.125-3.392a3.533 3.533 0 0 1 1.034-2.571 3.429 3.429 0 0 1 2.552-1.054 3.536 3.536 0 0 1 2.573 1.033 3.476 3.476 0 0 1 1.053 2.591 3.543 3.543 0 0 1-1.053 2.613 3.506 3.506 0 0 1-2.573 1.052 3.452 3.452 0 0 1-2.532-1.052 3.543 3.543 0 0 1-1.054-2.613zM8.152 52.309c-2.518 0-4.523-.905-5.958-2.691C.758 47.83.048 45.576.048 42.878c0-2.698.722-4.97 2.146-6.74 1.424-1.77 3.44-2.692 5.958-2.692a6.621 6.621 0 0 1 4.073 1.445v-8.86h6.648V51.92h-6.648v-1.057a6.594 6.594 0 0 1-4.073 1.446zm0-18.342c-2.35 0-4.22.834-5.553 2.504C1.267 38.14.568 40.31.568 42.885s.684 4.738 2.031 6.412c1.348 1.675 3.2 2.504 5.553 2.504a5.828 5.828 0 0 0 2.374-.5 5.109 5.109 0 0 0 1.764-1.218l.455-.5v1.824h5.607V26.544h-5.607v9.631l-.455-.5a5.124 5.124 0 0 0-1.764-1.204 5.826 5.826 0 0 0-2.374-.504zm1.64 13.111c-1.12 0-2.014-.407-2.662-1.21-.648-.803-.953-1.795-.953-2.99 0-1.227.32-2.247.955-3.032.634-.784 1.542-1.21 2.661-1.21a3.356 3.356 0 0 1 2.927 1.783l.026.055v4.768l-.025.053c-.566 1.184-1.552 1.783-2.93 1.783zm0-7.923c-.967 0-1.705.334-2.256 1.015-.551.681-.835 1.601-.835 2.706 0 1.079.282 1.975.835 2.672.552.696 1.289 1.015 2.255 1.015 1.156 0 1.952-.471 2.434-1.44V40.6a2.838 2.838 0 0 0-2.434-1.442v-.002zM28.279 51.92h-6.65V33.836h6.65V51.92zm-6.129-.521h5.608V34.356H22.15v17.043zm2.823-18.53a3.798 3.798 0 0 1-2.632-.986 3.292 3.292 0 0 1-1.1-2.554 3.339 3.339 0 0 1 1.1-2.593 4.007 4.007 0 0 1 5.267 0 3.349 3.349 0 0 1 1.107 2.598 3.302 3.302 0 0 1-1.1 2.554 3.803 3.803 0 0 1-2.642.985v-.005zm0-6.597a3.262 3.262 0 0 0-2.284.85c-.626.566-.93 1.287-.93 2.207-.03.826.311 1.622.93 2.17a3.496 3.496 0 0 0 4.57 0 2.766 2.766 0 0 0 .928-2.17c0-.92-.304-1.641-.928-2.207a3.265 3.265 0 0 0-2.286-.845v-.005zm14.286 32.244c-2.413 0-4.441-.583-6.027-1.728-1.586-1.145-2.574-2.79-2.895-4.855l-.047-.3h6.391l.055.187c.334 1.135 1.155 1.686 2.523 1.686 1.898 0 2.821-1.002 2.821-3.057v-.613c-1.002.892-2.309 1.336-3.915 1.336-2.462 0-4.44-.851-5.876-2.53-1.436-1.68-2.15-3.806-2.15-6.357 0-2.524.722-4.649 2.15-6.315 1.427-1.666 3.414-2.53 5.876-2.53 1.623 0 2.937.446 3.915 1.335v-.944h6.571v15.286c0 3.053-.861 5.409-2.56 7-1.7 1.59-3.994 2.399-6.832 2.399zm-8.356-6.362c.344 1.78 1.229 3.197 2.633 4.212 1.502 1.081 3.42 1.629 5.723 1.629 2.7 0 4.88-.758 6.476-2.252 1.596-1.494 2.395-3.718 2.395-6.621V34.356h-5.529v1.78l-.46-.545c-.906-1.078-2.245-1.624-3.976-1.624-2.304 0-4.147.79-5.48 2.347-1.334 1.557-2.026 3.586-2.026 5.978 0 2.423.682 4.448 2.025 6.01 1.344 1.563 3.172 2.35 5.481 2.35 1.708 0 3.047-.548 3.979-1.629l.457-.529v1.948c0 2.338-1.155 3.578-3.339 3.578-1.53 0-2.527-.63-2.961-1.873l-5.398.007zm8.785-5.855c-1.092 0-1.962-.38-2.581-1.129-.62-.75-.92-1.7-.92-2.878 0-1.177.317-2.147.94-2.881.623-.735 1.502-1.126 2.56-1.126 1.263 0 2.23.541 2.877 1.608l.037.062v4.674l-.035.06c-.62 1.067-1.588 1.61-2.878 1.61zm0-7.493c-.917 0-1.625.308-2.17.942-.546.634-.817 1.502-.817 2.544s.269 1.908.8 2.546c.53.638 1.237.942 2.18.942 1.082 0 1.867-.424 2.392-1.296v-4.382c-.544-.87-1.327-1.296-2.385-1.296zM58.057 51.92h-6.648V33.836h6.648V51.92zm-6.127-.521h5.606V34.356H51.93v17.043zm2.823-18.53a3.8 3.8 0 0 1-2.634-.986 3.297 3.297 0 0 1-1.1-2.554 3.339 3.339 0 0 1 1.1-2.593 4.007 4.007 0 0 1 5.267 0 3.349 3.349 0 0 1 1.1 2.593 3.306 3.306 0 0 1-1.1 2.557 3.808 3.808 0 0 1-2.628.987l-.005-.005zm0-6.597a3.264 3.264 0 0 0-2.286.85c-.624.566-.928 1.287-.928 2.207-.03.826.31 1.622.928 2.17a3.496 3.496 0 0 0 4.57 0 2.766 2.766 0 0 0 .928-2.17c0-.92-.304-1.641-.928-2.207a3.265 3.265 0 0 0-2.28-.845l-.004-.005zM68.88 52.27c-4.471 0-6.738-2.24-6.738-6.66v-6.491h-2.576v-5.283h2.576v-4.841h6.57v4.841h3.672v5.283h-3.673v5.592c0 1.155.513 1.691 1.613 1.691a4.618 4.618 0 0 0 1.848-.367l.364-.159v5.757l-.154.068c-.836.386-2.015.57-3.502.57zm-8.795-13.672h2.576v7.011c0 4.132 2.035 6.14 6.219 6.14 1.322 0 2.375-.153 3.135-.457v-4.64a5.21 5.21 0 0 1-1.691.271c-1.396 0-2.134-.764-2.134-2.212v-6.113h3.673v-4.242H68.19v-4.842h-5.529v4.842h-2.576v4.242zm20.382 13.634c-1.874 0-3.465-.526-4.73-1.563-1.266-1.036-1.93-2.514-1.93-4.357a5.209 5.209 0 0 1 2.003-4.242c1.315-1.062 3.005-1.6 5.008-1.6 1.477 0 2.688.258 3.603.765v-.667c.02-.49-.152-.97-.48-1.336-.302-.334-.77-.5-1.402-.5-.953 0-1.55.365-1.823 1.116l-.063.167h-6.259l.043-.299c.27-1.801 1.16-3.32 2.651-4.507 1.491-1.187 3.386-1.793 5.647-1.793 2.554 0 4.564.66 5.973 1.961 1.409 1.302 2.132 3.164 2.132 5.518V51.92h-6.414v-.635a5.95 5.95 0 0 1-1.336.565 8.926 8.926 0 0 1-2.623.382zm.353-11.24c-1.882 0-3.456.5-4.675 1.484-1.218.983-1.816 2.24-1.816 3.84 0 1.704.57 3.005 1.74 3.954 1.17.95 2.649 1.445 4.4 1.445a8.383 8.383 0 0 0 2.46-.36c.762-.233 1.291-.5 1.572-.774l.444-.444v1.265h5.372V40.885c0-2.202-.668-3.93-1.966-5.135-1.3-1.206-3.2-1.825-5.62-1.825-2.14 0-3.93.566-5.32 1.68A6.48 6.48 0 0 0 75 39.494h5.3c.38-.856 1.134-1.29 2.244-1.29.777 0 1.38.232 1.793.691.41.459.63 1.056.615 1.67v1.638l-.411-.294c-.868-.606-2.117-.918-3.718-.918h-.003zm1.287 7.178a3.506 3.506 0 0 1-1.853-.467 1.67 1.67 0 0 1-.827-1.503c-.019-.605.3-1.172.827-1.47a3.506 3.506 0 0 1 1.853-.468c1.4 0 2.337.454 2.808 1.35l.028.056v1.147l-.033.06c-.488.86-1.438 1.297-2.8 1.297l-.003-.002zm0-3.395a2.985 2.985 0 0 0-1.581.392 1.126 1.126 0 0 0-.578 1.027c-.024.435.2.847.578 1.065.48.275 1.028.41 1.58.392 1.153 0 1.91-.322 2.316-.982v-.88c-.377-.68-1.137-1.013-2.312-1.013l-.003-.001zm17.866 7.145h-6.65V26.03h6.649l.001 25.89zm-6.128-.521h5.607V26.544h-5.607V51.4z" opacity=".8"/>
</svg>